<?xml version="1.0" encoding="utf-8"?>
<!-- Generator: Adobe Illustrator 16.0.0, SVG Export Plug-In . SVG Version: 6.00 Build 0)  -->
<!DOCTYPE svg PUBLIC "-//W3C//DTD SVG 1.1//EN" "http://www.w3.org/Graphics/SVG/1.1/DTD/svg11.dtd">
<svg version="1.1" id="Capa_1" xmlns="http://www.w3.org/2000/svg" xmlns:xlink="http://www.w3.org/1999/xlink" x="0px" y="0px"
	 width="18.881px" height="28.929px" viewBox="278.081 403.427 18.881 28.929"
	 enable-background="new 278.081 403.427 18.881 28.929" xml:space="preserve">
<path fill="#666666" d="M294.068,405.978c-1.871-1.701-4.082-2.551-6.633-2.551c-2.552,0-4.933,0.852-6.633,2.551
	c-1.871,1.701-2.722,3.742-2.722,6.123c0,1.531,0.681,3.742,2.381,7.144c1.53,3.4,3.231,6.463,4.763,9.185
	c1.53,2.722,2.381,4.082,2.381,3.912c0.34-0.511,0.511-1.021,1.021-1.701c0.51-0.681,1.189-2.041,2.211-4.082
	c1.189-2.041,2.041-3.74,2.893-5.441c0.85-1.701,1.529-3.402,2.211-5.272c0.68-1.87,1.021-3.062,1.021-3.911
	C296.789,409.72,295.939,407.679,294.068,405.978z M289.477,413.802c-0.511,0.51-1.19,0.852-2.041,0.852s-1.531-0.34-2.041-0.852
	c-0.51-0.51-0.851-1.021-0.851-1.871c0-0.85,0.34-1.359,0.851-1.871c0.51-0.51,1.19-0.851,2.041-0.851s1.53,0.34,2.041,0.851
	c0.51,0.51,0.851,1.19,0.851,1.871C290.326,412.61,289.986,413.292,289.477,413.802z"/>
</svg>
