<?xml version="1.0" encoding="utf-8"?>
<!-- Generator: Adobe Illustrator 17.1.0, SVG Export Plug-In . SVG Version: 6.00 Build 0)  -->
<!DOCTYPE svg PUBLIC "-//W3C//DTD SVG 1.1//EN" "http://www.w3.org/Graphics/SVG/1.1/DTD/svg11.dtd">
<svg version="1.1" id="Capa_1" xmlns="http://www.w3.org/2000/svg" xmlns:xlink="http://www.w3.org/1999/xlink" x="0px" y="0px"
	 viewBox="189 600.9 400.1 239" enable-background="new 189 600.9 400.1 239" xml:space="preserve">
<g>
	<g>
		<path d="M267.9,700.2v-97.1h29.2v97.1C297,700.2,267.9,700.2,267.9,700.2z"/>
		<path d="M362.7,623.1c-3.7-2.6-8.8-3.5-14.2-3.5c-5.8,0-8.5,3-8.5,5.9c0,5.5,8.1,9.9,17.4,18.7c12.7,11.5,15.4,19.1,15.4,29.2
			c0,8.8-7.2,28.5-36.4,28.5c-11.2-0.4-22.7-3-30.6-9.2l8.8-16.1c4.2,3,9.6,6.9,16.5,6.9c5.9,0,12.2-3,12.2-10.1
			c0-7.8-9.5-13.5-17-20.3c-10.1-8.9-16.1-14.1-16.1-26c0-15.4,15.7-26.2,33.8-26.2c12.4,0,22,4.3,25.6,6.5L362.7,623.1z"/>
		<path d="M420,603.1c38.8,0,53.8,22.3,53.8,45.7c0,35.7-25.7,51.1-54.5,51.1h-36.8v-96.8H420L420,603.1z M411.6,681.8h7.6
			c16.8,0,24.6-13.5,24.6-32.9c0-17.4-10.8-27.6-23.7-27.6h-8.5V681.8L411.6,681.8z"/>
		<path d="M483.4,700.2v-97.1h29.2v97.1H483.4z"/>
	</g>
	<path d="M238.9,697L189,674v-5.3l49.9-23v6.5l-41.6,19.3l41.6,19.6V697L238.9,697z"/>
	<path d="M580.5,671.3l-41.6-19.6v-6.5l50.2,23.3v5.3l-49.9,23v-6.5L580.5,671.3z"/>
	<rect x="268.3" y="722.1" fill="none" width="244.6" height="117.8"/>
	<g enable-background="new    ">
		<path d="M272.5,723v17.3h-2.2V723H272.5z"/>
		<path d="M276.6,731.3c0-1.3,0-2.3-0.1-3.4h2l0.1,2.1h0.1c0.6-1.2,2.1-2.3,4.1-2.3c1.7,0,4.4,1,4.4,5.3v7.4h-2.3v-7.2
			c0-2-0.7-3.7-2.9-3.7c-1.5,0-2.6,1.1-3,2.3c-0.1,0.3-0.2,0.7-0.2,1.1v7.5h-2.3L276.6,731.3L276.6,731.3z"/>
		<path d="M290.5,738c0.7,0.4,1.9,0.9,3,0.9c1.6,0,2.4-0.8,2.4-1.9c0-1.1-0.6-1.7-2.3-2.3c-2.2-0.8-3.3-2-3.3-3.5
			c0-2,1.6-3.6,4.3-3.6c1.3,0,2.4,0.4,3.1,0.8l-0.6,1.6c-0.5-0.3-1.4-0.7-2.5-0.7c-1.3,0-2.1,0.8-2.1,1.7c0,1,0.7,1.5,2.4,2.1
			c2.2,0.8,3.3,1.9,3.3,3.8c0,2.2-1.7,3.8-4.7,3.8c-1.4,0-2.6-0.4-3.5-0.9L290.5,738z"/>
		<path d="M303.7,724.9v3h3.2v1.7h-3.2v6.7c0,1.5,0.4,2.4,1.7,2.4c0.6,0,1-0.1,1.3-0.2l0.1,1.7c-0.4,0.2-1.1,0.3-2,0.3
			c-1.1,0-1.9-0.4-2.4-1c-0.6-0.7-0.9-1.8-0.9-3.2v-6.8h-1.9v-1.7h1.9v-2.3L303.7,724.9z"/>
		<path d="M312,724.4c0,0.8-0.5,1.4-1.4,1.4c-0.8,0-1.4-0.6-1.4-1.4c0-0.8,0.6-1.4,1.4-1.4C311.5,723,312,723.6,312,724.4z
			 M309.5,740.3v-12.4h2.3v12.4H309.5z"/>
		<path d="M318.2,724.9v3h3.2v1.7h-3.2v6.7c0,1.5,0.4,2.4,1.7,2.4c0.6,0,1-0.1,1.3-0.2l0.1,1.7c-0.4,0.2-1.1,0.3-2,0.3
			c-1.1,0-1.9-0.4-2.4-1c-0.6-0.7-0.9-1.8-0.9-3.2v-6.8h-1.9v-1.7h1.9v-2.3L318.2,724.9z"/>
		<path d="M334.4,737c0,1.3,0,2.4,0.1,3.4h-2l-0.1-2h-0.1c-0.6,1-1.9,2.3-4.1,2.3c-2,0-4.3-1.1-4.3-5.4V728h2.3v6.9
			c0,2.4,0.7,4,2.8,4c1.5,0,2.6-1.1,3-2.1c0.1-0.3,0.2-0.7,0.2-1.2V728h2.3L334.4,737L334.4,737z"/>
		<path d="M340.9,724.9v3h3.2v1.7h-3.2v6.7c0,1.5,0.4,2.4,1.7,2.4c0.6,0,1-0.1,1.3-0.2l0.1,1.7c-0.4,0.2-1.1,0.3-2,0.3
			c-1.1,0-1.9-0.4-2.4-1c-0.6-0.7-0.9-1.8-0.9-3.2v-6.8h-1.9v-1.7h1.9v-2.3L340.9,724.9z"/>
		<path d="M351.9,737.6c1,0.6,2.5,1.1,4,1.1c2.3,0,3.6-1.2,3.6-3c0-1.6-0.9-2.5-3.3-3.4c-2.8-1-4.6-2.5-4.6-4.9
			c0-2.7,2.2-4.7,5.6-4.7c1.8,0,3.1,0.4,3.8,0.8l-0.6,1.8c-0.6-0.3-1.7-0.8-3.3-0.8c-2.4,0-3.3,1.4-3.3,2.6c0,1.6,1.1,2.4,3.4,3.3
			c2.9,1.1,4.4,2.5,4.4,5.1c0,2.7-2,5-6.1,5c-1.7,0-3.5-0.5-4.4-1.1L351.9,737.6z"/>
		<path d="M375.2,737c0,1.3,0,2.4,0.1,3.4h-2l-0.1-2h-0.1c-0.6,1-1.9,2.3-4.1,2.3c-2,0-4.3-1.1-4.3-5.4V728h2.3v6.9
			c0,2.4,0.7,4,2.8,4c1.5,0,2.6-1.1,3-2.1c0.1-0.3,0.2-0.7,0.2-1.2V728h2.3L375.2,737L375.2,737z"/>
		<path d="M379,732c0-1.6-0.1-2.9-0.1-4.1h2l0.1,2.1h0.1c0.9-1.5,2.4-2.4,4.4-2.4c3,0,5.3,2.5,5.3,6.3c0,4.5-2.7,6.7-5.7,6.7
			c-1.6,0-3.1-0.7-3.8-2h-0.1v6.8H379V732z M381.2,735.3c0,0.3,0.1,0.6,0.1,0.9c0.4,1.6,1.8,2.6,3.4,2.6c2.4,0,3.8-2,3.8-4.8
			c0-2.5-1.3-4.6-3.7-4.6c-1.5,0-3,1.1-3.4,2.8c-0.1,0.3-0.2,0.6-0.2,0.9L381.2,735.3L381.2,735.3z"/>
		<path d="M394.8,734.5c0.1,3.1,2,4.3,4.3,4.3c1.6,0,2.6-0.3,3.4-0.6l0.4,1.6c-0.8,0.4-2.2,0.8-4.1,0.8c-3.8,0-6.1-2.5-6.1-6.3
			s2.2-6.7,5.8-6.7c4.1,0,5.1,3.6,5.1,5.9c0,0.5-0.1,0.8-0.1,1.1L394.8,734.5L394.8,734.5z M401.5,732.9c0-1.4-0.6-3.7-3.1-3.7
			c-2.3,0-3.3,2.1-3.5,3.7H401.5z"/>
		<path d="M406.4,731.8c0-1.5,0-2.7-0.1-3.9h2l0.1,2.4h0.1c0.6-1.7,1.9-2.7,3.4-2.7c0.3,0,0.4,0,0.6,0.1v2.1
			c-0.2-0.1-0.5-0.1-0.8-0.1c-1.6,0-2.7,1.2-3,2.9c-0.1,0.3-0.1,0.7-0.1,1.1v6.6h-2.2V731.8z"/>
		<path d="M417.5,724.4c0,0.8-0.5,1.4-1.4,1.4c-0.8,0-1.4-0.6-1.4-1.4c0-0.8,0.6-1.4,1.4-1.4S417.5,723.6,417.5,724.4z M414.9,740.3
			v-12.4h2.3v12.4H414.9z"/>
		<path d="M432.2,734c0,4.6-3.2,6.6-6.2,6.6c-3.4,0-6-2.5-6-6.4c0-4.2,2.7-6.6,6.2-6.6C429.8,727.6,432.2,730.2,432.2,734z
			 M422.3,734.2c0,2.7,1.6,4.8,3.8,4.8c2.2,0,3.8-2,3.8-4.8c0-2.1-1.1-4.8-3.7-4.8C423.5,729.3,422.3,731.8,422.3,734.2z"/>
		<path d="M435.1,731.8c0-1.5,0-2.7-0.1-3.9h2l0.1,2.4h0.1c0.6-1.7,1.9-2.7,3.4-2.7c0.3,0,0.4,0,0.6,0.1v2.1
			c-0.2-0.1-0.5-0.1-0.8-0.1c-1.6,0-2.7,1.2-3,2.9c-0.1,0.3-0.1,0.7-0.1,1.1v6.6h-2.2V731.8z"/>
		<path d="M448.9,732c0-1.6-0.1-2.9-0.1-4.1h2l0.1,2.1h0.1c0.9-1.5,2.4-2.4,4.4-2.4c3,0,5.3,2.5,5.3,6.3c0,4.5-2.7,6.7-5.7,6.7
			c-1.6,0-3.1-0.7-3.8-2h-0.1v6.8h-2.2L448.9,732L448.9,732z M451.1,735.3c0,0.3,0.1,0.6,0.1,0.9c0.4,1.6,1.8,2.6,3.4,2.6
			c2.4,0,3.8-2,3.8-4.8c0-2.5-1.3-4.6-3.7-4.6c-1.5,0-3,1.1-3.4,2.8c-0.1,0.3-0.2,0.6-0.2,0.9L451.1,735.3L451.1,735.3z"/>
		<path d="M464.8,734.5c0.1,3.1,2,4.3,4.3,4.3c1.6,0,2.6-0.3,3.4-0.6l0.4,1.6c-0.8,0.4-2.2,0.8-4.1,0.8c-3.8,0-6.1-2.5-6.1-6.3
			s2.2-6.7,5.8-6.7c4.1,0,5.1,3.6,5.1,5.9c0,0.5-0.1,0.8-0.1,1.1L464.8,734.5L464.8,734.5z M471.4,732.9c0-1.4-0.6-3.7-3.1-3.7
			c-2.3,0-3.3,2.1-3.5,3.7H471.4z"/>
		<path d="M476.4,731.8c0-1.5,0-2.7-0.1-3.9h2l0.1,2.4h0.1c0.6-1.7,1.9-2.7,3.4-2.7c0.3,0,0.4,0,0.6,0.1v2.1
			c-0.2-0.1-0.5-0.1-0.8-0.1c-1.6,0-2.7,1.2-3,2.9c-0.1,0.3-0.1,0.7-0.1,1.1v6.6h-2.2V731.8z"/>
		<path d="M499,737.4c0,1.1,0.1,2.1,0.2,3h-2.1l-0.2-1.6h-0.1c-0.7,1-2,1.8-3.8,1.8c-2.5,0-3.8-1.8-3.8-3.6c0-3,2.7-4.7,7.5-4.6
			v-0.3c0-1-0.3-2.9-2.8-2.9c-1.2,0-2.4,0.4-3.2,0.9l-0.5-1.5c1-0.7,2.5-1.1,4.1-1.1c3.8,0,4.7,2.6,4.7,5.1L499,737.4L499,737.4z
			 M496.8,734c-2.5-0.1-5.3,0.4-5.3,2.8c0,1.5,1,2.2,2.1,2.2c1.6,0,2.6-1,3-2.1c0.1-0.2,0.1-0.5,0.1-0.7L496.8,734L496.8,734z"/>
		<path d="M502.6,722.1h2.3v18.2h-2.3V722.1z"/>
	</g>
	<g enable-background="new    ">
		<path d="M270.2,751.7c1.4-0.2,3-0.4,4.8-0.4c3.2,0,5.5,0.7,7,2.2c1.5,1.4,2.4,3.4,2.4,6.2s-0.9,5.1-2.5,6.7
			c-1.6,1.6-4.3,2.5-7.7,2.5c-1.6,0-2.9-0.1-4.1-0.2v-17H270.2z M272.5,767c0.6,0.1,1.4,0.1,2.3,0.1c4.8,0,7.4-2.7,7.4-7.3
			c0-4.1-2.3-6.7-7-6.7c-1.2,0-2,0.1-2.6,0.2L272.5,767L272.5,767z"/>
		<path d="M288.6,762.9c0.1,3.1,2,4.3,4.3,4.3c1.6,0,2.6-0.3,3.4-0.6l0.4,1.6c-0.8,0.4-2.2,0.8-4.1,0.8c-3.8,0-6.1-2.5-6.1-6.3
			s2.2-6.7,5.8-6.7c4.1,0,5.1,3.6,5.1,5.9c0,0.5-0.1,0.8-0.1,1.1L288.6,762.9L288.6,762.9z M295.3,761.3c0-1.4-0.6-3.7-3.1-3.7
			c-2.3,0-3.3,2.1-3.5,3.7H295.3z"/>
		<path d="M299.9,766.4c0.7,0.4,1.9,0.9,3,0.9c1.6,0,2.4-0.8,2.4-1.9c0-1.1-0.6-1.7-2.3-2.3c-2.2-0.8-3.3-2-3.3-3.5
			c0-2,1.6-3.6,4.3-3.6c1.3,0,2.4,0.4,3.1,0.8l-0.6,1.6c-0.5-0.3-1.4-0.7-2.5-0.7c-1.3,0-2.1,0.8-2.1,1.7c0,1,0.7,1.5,2.4,2.1
			c2.2,0.8,3.3,1.9,3.3,3.8c0,2.2-1.7,3.8-4.7,3.8c-1.4,0-2.6-0.4-3.5-0.9L299.9,766.4z"/>
		<path d="M311.7,762.9c0.1,3.1,2,4.3,4.3,4.3c1.6,0,2.6-0.3,3.4-0.6l0.4,1.6c-0.8,0.4-2.2,0.8-4.1,0.8c-3.8,0-6.1-2.5-6.1-6.3
			s2.2-6.7,5.8-6.7c4.1,0,5.1,3.6,5.1,5.9c0,0.5-0.1,0.8-0.1,1.1L311.7,762.9L311.7,762.9z M318.3,761.3c0-1.4-0.6-3.7-3.1-3.7
			c-2.3,0-3.3,2.1-3.5,3.7H318.3z"/>
		<path d="M323.3,759.7c0-1.3,0-2.3-0.1-3.4h2l0.1,2.1h0.1c0.6-1.2,2.1-2.3,4.1-2.3c1.7,0,4.4,1,4.4,5.3v7.4h-2.3v-7.2
			c0-2-0.7-3.7-2.9-3.7c-1.5,0-2.6,1.1-3,2.3c-0.1,0.3-0.2,0.7-0.2,1.1v7.5h-2.3L323.3,759.7L323.3,759.7z"/>
		<path d="M338.1,756.3l2.4,7c0.4,1.1,0.7,2.2,1,3.2h0.1c0.3-1,0.6-2.1,1.1-3.2l2.4-7h2.4l-4.9,12.4h-2.2l-4.7-12.4H338.1z"/>
		<path d="M360.6,762.4c0,4.6-3.2,6.6-6.2,6.6c-3.4,0-6-2.5-6-6.4c0-4.2,2.7-6.6,6.2-6.6C358.2,756,360.6,758.6,360.6,762.4z
			 M350.7,762.6c0,2.7,1.6,4.8,3.8,4.8c2.2,0,3.8-2,3.8-4.8c0-2.1-1.1-4.8-3.7-4.8C351.9,757.7,350.7,760.2,350.7,762.6z"/>
		<path d="M363.4,750.5h2.3v18.2h-2.3V750.5z"/>
		<path d="M379.9,765.4c0,1.3,0,2.4,0.1,3.4h-2l-0.1-2h-0.1c-0.6,1-1.9,2.3-4.1,2.3c-2,0-4.3-1.1-4.3-5.4v-7.3h2.3v6.9
			c0,2.4,0.7,4,2.8,4c1.5,0,2.6-1.1,3-2.1c0.1-0.3,0.2-0.7,0.2-1.2v-7.6h2.3L379.9,765.4L379.9,765.4z"/>
		<path d="M383.7,760.4c0-1.6-0.1-2.9-0.1-4.1h2l0.1,2.1h0.1c0.9-1.5,2.4-2.4,4.4-2.4c3,0,5.3,2.5,5.3,6.3c0,4.5-2.7,6.7-5.7,6.7
			c-1.6,0-3.1-0.7-3.8-2h-0.1v6.8h-2.2L383.7,760.4L383.7,760.4z M385.9,763.7c0,0.3,0.1,0.6,0.1,0.9c0.4,1.6,1.8,2.6,3.4,2.6
			c2.4,0,3.8-2,3.8-4.8c0-2.5-1.3-4.6-3.7-4.6c-1.5,0-3,1.1-3.4,2.8c-0.1,0.3-0.2,0.6-0.2,0.9L385.9,763.7L385.9,763.7z"/>
		<path d="M407,765.8c0,1.1,0.1,2.1,0.2,3h-2.1l-0.2-1.6h-0.1c-0.7,1-2,1.8-3.8,1.8c-2.5,0-3.8-1.8-3.8-3.6c0-3,2.7-4.7,7.5-4.6
			v-0.3c0-1-0.3-2.9-2.8-2.9c-1.2,0-2.4,0.4-3.2,0.9l-0.5-1.5c1-0.7,2.5-1.1,4.1-1.1c3.8,0,4.7,2.6,4.7,5.1L407,765.8L407,765.8z
			 M404.8,762.4c-2.5-0.1-5.3,0.4-5.3,2.8c0,1.5,1,2.2,2.1,2.2c1.6,0,2.6-1,3-2.1c0.1-0.2,0.1-0.5,0.1-0.7L404.8,762.4L404.8,762.4z
			"/>
		<path d="M410.7,759.7c0-1.3,0-2.3-0.1-3.4h2l0.1,2h0.1c0.7-1.2,1.8-2.3,3.9-2.3c1.7,0,3,1,3.5,2.5h0.1c0.4-0.7,0.9-1.2,1.4-1.6
			c0.7-0.6,1.6-0.9,2.7-0.9c1.6,0,4.1,1.1,4.1,5.4v7.3h-2.2v-7c0-2.4-0.9-3.8-2.7-3.8c-1.3,0-2.3,1-2.7,2.1
			c-0.1,0.3-0.2,0.7-0.2,1.1v7.7h-2.2v-7.5c0-2-0.9-3.4-2.6-3.4c-1.4,0-2.4,1.1-2.8,2.3c-0.1,0.3-0.2,0.7-0.2,1.1v7.5h-2.2
			L410.7,759.7L410.7,759.7z"/>
		<path d="M433.3,762.9c0.1,3.1,2,4.3,4.3,4.3c1.6,0,2.6-0.3,3.4-0.6l0.4,1.6c-0.8,0.4-2.2,0.8-4.1,0.8c-3.8,0-6.1-2.5-6.1-6.3
			s2.2-6.7,5.8-6.7c4.1,0,5.1,3.6,5.1,5.9c0,0.5-0.1,0.8-0.1,1.1L433.3,762.9L433.3,762.9z M440,761.3c0-1.4-0.6-3.7-3.1-3.7
			c-2.3,0-3.3,2.1-3.5,3.7H440z"/>
		<path d="M445,759.7c0-1.3,0-2.3-0.1-3.4h2l0.1,2.1h0.1c0.6-1.2,2.1-2.3,4.1-2.3c1.7,0,4.4,1,4.4,5.3v7.4h-2.3v-7.2
			c0-2-0.7-3.7-2.9-3.7c-1.5,0-2.6,1.1-3,2.3c-0.1,0.3-0.2,0.7-0.2,1.1v7.5H445V759.7z"/>
		<path d="M461.8,753.3v3h3.2v1.7h-3.2v6.7c0,1.5,0.4,2.4,1.7,2.4c0.6,0,1-0.1,1.3-0.2l0.1,1.7c-0.4,0.2-1.1,0.3-2,0.3
			c-1.1,0-1.9-0.4-2.4-1c-0.6-0.7-0.9-1.8-0.9-3.2V758h-1.9v-1.7h1.9V754L461.8,753.3z"/>
	</g>
	<g enable-background="new    ">
		<path d="M280.9,778.9v15c0,1.1,0,2.4,0.1,3.2h-2l-0.1-2.2h-0.1c-0.7,1.4-2.2,2.4-4.2,2.4c-3,0-5.3-2.5-5.3-6.3
			c0-4.1,2.5-6.7,5.6-6.7c1.9,0,3.2,0.9,3.8,1.9h0.1v-7.4L280.9,778.9L280.9,778.9z M278.6,789.8c0-0.3,0-0.7-0.1-1
			c-0.3-1.4-1.6-2.6-3.3-2.6c-2.3,0-3.7,2.1-3.7,4.8c0,2.5,1.2,4.6,3.7,4.6c1.5,0,2.9-1,3.3-2.7c0.1-0.3,0.1-0.6,0.1-1V789.8z"/>
		<path d="M286.3,779.4l-0.4,6.2h-1.4l-0.4-6.2H286.3z"/>
		<path d="M291.8,779.8v17.3h-2.2v-17.3H291.8z"/>
		<path d="M295.9,788.1c0-1.3,0-2.3-0.1-3.4h2l0.1,2.1h0.1c0.6-1.2,2.1-2.3,4.1-2.3c1.7,0,4.4,1,4.4,5.3v7.4h-2.3V790
			c0-2-0.7-3.7-2.9-3.7c-1.5,0-2.6,1.1-3,2.3c-0.1,0.3-0.2,0.7-0.2,1.1v7.5h-2.3L295.9,788.1L295.9,788.1z"/>
		<path d="M312.8,781.7v3h3.2v1.7h-3.2v6.7c0,1.5,0.4,2.4,1.7,2.4c0.6,0,1-0.1,1.3-0.2l0.1,1.7c-0.4,0.2-1.1,0.3-2,0.3
			c-1.1,0-1.9-0.4-2.4-1c-0.6-0.7-0.9-1.8-0.9-3.2v-6.8h-1.9v-1.7h1.9v-2.3L312.8,781.7z"/>
		<path d="M319.7,791.3c0.1,3.1,2,4.3,4.3,4.3c1.6,0,2.6-0.3,3.4-0.6l0.4,1.6c-0.8,0.4-2.2,0.8-4.1,0.8c-3.8,0-6.1-2.5-6.1-6.3
			s2.2-6.7,5.8-6.7c4.1,0,5.1,3.6,5.1,5.9c0,0.5-0.1,0.8-0.1,1.1L319.7,791.3L319.7,791.3z M326.3,789.7c0-1.4-0.6-3.7-3.1-3.7
			c-2.3,0-3.3,2.1-3.5,3.7H326.3z"/>
		<path d="M331.3,788.6c0-1.5,0-2.7-0.1-3.9h2l0.1,2.4h0.1c0.6-1.7,1.9-2.7,3.4-2.7c0.3,0,0.4,0,0.6,0.1v2.1
			c-0.2-0.1-0.5-0.1-0.8-0.1c-1.6,0-2.7,1.2-3,2.9c-0.1,0.3-0.1,0.7-0.1,1.1v6.6h-2.2V788.6z"/>
		<path d="M339.8,788.1c0-1.3,0-2.3-0.1-3.4h2l0.1,2.1h0.1c0.6-1.2,2.1-2.3,4.1-2.3c1.7,0,4.4,1,4.4,5.3v7.4h-2.3V790
			c0-2-0.7-3.7-2.9-3.7c-1.5,0-2.6,1.1-3,2.3c-0.1,0.3-0.2,0.7-0.2,1.1v7.5h-2.3L339.8,788.1L339.8,788.1z"/>
		<path d="M355.3,791.3c0.1,3.1,2,4.3,4.3,4.3c1.6,0,2.6-0.3,3.4-0.6l0.4,1.6c-0.8,0.4-2.2,0.8-4.1,0.8c-3.8,0-6.1-2.5-6.1-6.3
			s2.2-6.7,5.8-6.7c4.1,0,5.1,3.6,5.1,5.9c0,0.5-0.1,0.8-0.1,1.1L355.3,791.3L355.3,791.3z M361.9,789.7c0-1.4-0.6-3.7-3.1-3.7
			c-2.3,0-3.3,2.1-3.5,3.7H361.9z"/>
		<path d="M369.6,781.7v3h3.2v1.7h-3.2v6.7c0,1.5,0.4,2.4,1.7,2.4c0.6,0,1-0.1,1.3-0.2l0.1,1.7c-0.4,0.2-1.1,0.3-2,0.3
			c-1.1,0-1.9-0.4-2.4-1c-0.6-0.7-0.9-1.8-0.9-3.2v-6.8h-1.9v-1.7h1.9v-2.3L369.6,781.7z"/>
	</g>
</g>
</svg>
