<?xml version="1.0" encoding="utf-8"?>
<!-- Generator: Adobe Illustrator 16.0.0, SVG Export Plug-In . SVG Version: 6.00 Build 0)  -->
<!DOCTYPE svg PUBLIC "-//W3C//DTD SVG 1.1//EN" "http://www.w3.org/Graphics/SVG/1.1/DTD/svg11.dtd">
<svg version="1.1" id="Modo_de_aislamiento" xmlns="http://www.w3.org/2000/svg" xmlns:xlink="http://www.w3.org/1999/xlink"
	 x="0px" y="0px" width="52.724px" height="13.606px" viewBox="240.834 411.422 52.724 13.606"
	 enable-background="new 240.834 411.422 52.724 13.606" xml:space="preserve">
<g>
	<g>
		<path fill="#010202" d="M251.208,424.771V411.59h3.827v13.182H251.208z"/>
		<path fill="#010202" d="M263.709,414.312c-0.51-0.255-1.191-0.425-1.956-0.425c-0.766,0-1.105,0.34-1.105,0.851
			c0,0.765,1.105,1.275,2.381,2.551c1.616,1.616,2.126,2.637,2.126,3.912c0,1.104-0.935,3.827-4.762,3.827
			c-1.531,0-3.061-0.341-3.997-1.191l1.19-2.126c0.595,0.426,1.274,0.937,2.211,0.937c0.766,0,1.616-0.341,1.616-1.36
			s-1.275-1.786-2.296-2.722c-1.361-1.19-2.126-1.87-2.126-3.571c0-2.126,2.126-3.572,4.422-3.572c1.615,0,2.892,0.681,3.316,0.937
			L263.709,414.312z"/>
		<path fill="#010202" d="M271.278,411.591c5.104,0,7.144,2.977,7.144,6.208c0,4.848-3.401,6.974-7.229,6.974h-4.762v-13.182
			H271.278z M270.087,422.305h1.021c2.211,0,3.316-1.785,3.316-4.507c0-2.381-1.446-3.741-3.146-3.741h-1.104L270.087,422.305
			L270.087,422.305z"/>
		<path fill="#010202" d="M279.697,424.771V411.59h3.827v13.182H279.697z"/>
	</g>
	<path fill="#010202" d="M247.382,424.261l-6.548-3.062v-0.766l6.548-3.146v0.852l-5.528,2.722l5.528,2.636V424.261z"/>
	<path fill="#010202" d="M292.537,420.86l-5.527-2.637v-0.852l6.548,3.146v0.766l-6.548,3.146v-0.936L292.537,420.86z"/>
</g>
</svg>
