<?xml version="1.0" encoding="utf-8"?>
<!-- Generator: Adobe Illustrator 16.0.0, SVG Export Plug-In . SVG Version: 6.00 Build 0)  -->
<!DOCTYPE svg PUBLIC "-//W3C//DTD SVG 1.1//EN" "http://www.w3.org/Graphics/SVG/1.1/DTD/svg11.dtd">
<svg version="1.1" id="Capa_1" xmlns="http://www.w3.org/2000/svg" xmlns:xlink="http://www.w3.org/1999/xlink" x="0px" y="0px"
	 width="318.049px" height="193.722px" viewBox="135.554 315.325 318.049 193.722"
	 enable-background="new 135.554 315.325 318.049 193.722" xml:space="preserve">
<g>
	<path fill="#FFFFFF" d="M275.19,433.19V315.325h35.206v118.036L275.19,433.19L275.19,433.19z"/>
	<path fill="#FFFFFF" d="M323.832,433.19V315.325h51.874c23.132,0,38.438,9.695,38.438,26.873c0,18.368-15.647,23.811-22.791,27.042
		v0.51c13.605,0.681,30.274,11.396,30.274,27.554c0,21.43-16.669,36.058-49.834,36.058h-47.963L323.832,433.19L323.832,433.19z
		 M358.698,362.268h6.123c12.926,0,17.178-7.313,17.178-15.308c0-10.035-8.504-12.756-13.775-12.756h-9.864L358.698,362.268
		L358.698,362.268z M358.698,414.142h6.633c12.416,0,20.07-6.123,20.07-17.688c0-9.354-4.593-15.478-16.838-15.478h-9.865V414.142
		L358.698,414.142z"/>
	<g>
		<path fill="#FFFFFF" d="M277.061,477.582v-20.92h6.122v20.75L277.061,477.582L277.061,477.582z"/>
		<path fill="#FFFFFF" d="M304.953,477.582h-4.082c-3.062-3.912-7.312-8.675-9.354-12.246h-0.17v12.246h-4.763v-20.92h4.422
			c3.062,3.741,7.483,9.014,8.845,12.075h0.17v-12.075h4.763L304.953,477.582L304.953,477.582z"/>
		<path fill="#FFFFFF" d="M313.117,477.582v-17.008h-5.953v-3.912h18.198v3.912h-5.952v17.008H313.117z"/>
		<path fill="#FFFFFF" d="M339.65,460.744h-6.293v4.252h6.123v3.911h-6.123v5.103h7.483v3.912h-13.776v-21.26h12.586V460.744
			L339.65,460.744z"/>
		<path fill="#FFFFFF" d="M343.392,456.662h9.354c4.764,0,7.484,2.211,7.484,5.612c0,3.23-1.531,5.103-3.402,6.122l4.424,8.845
			l-6.635,0.681l-3.23-8.164h-1.7v7.824h-6.123L343.392,456.662L343.392,456.662z M349.855,465.676h1.871
			c1.7,0,2.551-1.359,2.551-2.551c0-2.041-1.359-2.551-2.551-2.551h-1.701L349.855,465.676L349.855,465.676z"/>
		<path fill="#FFFFFF" d="M381.659,477.582h-4.082c-3.062-3.912-7.312-8.675-9.354-12.246h-0.17v12.246h-4.763v-20.92h4.423
			c3.062,3.741,7.482,9.014,8.844,12.075h0.17v-12.075h4.763L381.659,477.582L381.659,477.582z"/>
		<path fill="#FFFFFF" d="M397.647,460.744h-6.293v4.252h6.123v3.911h-6.123v5.103h7.654v3.912h-13.777v-21.26h12.586
			L397.647,460.744L397.647,460.744z"/>
		<path fill="#FFFFFF" d="M406.151,477.582v-17.008h-6.122v-3.912h18.028v3.912h-5.953v17.008H406.151z"/>
		<path fill="#FFFFFF" d="M277.061,508.706v-20.749h9.354c4.081,0,6.804,1.7,6.804,4.762c0,3.231-2.723,4.252-3.912,4.764v0.17
			c2.382,0.17,5.271,2.041,5.271,4.933c0,3.911-3.062,6.293-8.844,6.293L277.061,508.706L277.061,508.706L277.061,508.706z
			 M283.183,496.291h1.19c2.381,0,3.062-1.361,3.062-2.722c0-1.701-1.531-2.211-2.382-2.211h-1.7L283.183,496.291L283.183,496.291z
			 M283.183,505.474h1.19c2.211,0,3.571-1.189,3.571-3.062c0-1.7-0.851-2.721-3.062-2.721h-1.87
			C283.183,499.522,283.183,505.474,283.183,505.474z"/>
		<path fill="#FFFFFF" d="M302.232,487.786v11.056c0,3.742,0.681,5.953,3.231,5.953c2.041,0,3.231-2.041,3.231-6.123v-10.886h5.272
			v12.757c0,6.122-4.082,8.504-8.846,8.504c-5.271,0-9.014-2.211-9.014-8.334v-12.927H302.232L302.232,487.786z"/>
		<path fill="#FFFFFF" d="M327.574,492.209c-0.851-0.511-1.871-0.851-3.062-0.851c-1.191,0-1.871,0.68-1.871,1.359
			c0,1.19,1.7,2.041,3.741,4.082c2.722,2.551,3.23,4.082,3.23,6.123c0,1.871-1.53,6.123-7.653,6.123
			c-2.381,0-4.762-0.681-6.463-1.871l1.871-3.4c0.852,0.68,2.041,1.529,3.401,1.529c1.189,0,2.551-0.681,2.551-2.211
			c0-1.701-2.04-2.892-3.571-4.422c-2.211-1.871-3.23-3.062-3.23-5.613c0-3.4,3.23-5.611,7.144-5.611
			c2.722,0,4.593,1.021,5.272,1.359L327.574,492.209z"/>
		<path fill="#FFFFFF" d="M332.677,508.706v-20.749h6.123v20.749H332.677z"/>
		<path fill="#FFFFFF" d="M360.74,508.706h-4.082c-3.062-3.911-7.312-8.674-9.354-12.245h-0.17v12.245h-4.763v-20.749h4.423
			c3.062,3.741,7.482,9.014,8.844,12.075h0.17v-12.075h4.763L360.74,508.706L360.74,508.706z"/>
		<path fill="#FFFFFF" d="M376.727,491.868h-6.293v4.252h6.123v3.912h-6.123v5.103h7.654v3.912h-13.777v-20.92h12.586
			L376.727,491.868L376.727,491.868L376.727,491.868z"/>
		<path fill="#FFFFFF" d="M392.034,492.209c-0.851-0.511-1.871-0.851-3.062-0.851c-1.191,0-1.871,0.68-1.871,1.359
			c0,1.19,1.701,2.041,3.742,4.082c2.721,2.551,3.23,4.082,3.23,6.123c0,1.871-1.53,6.123-7.652,6.123
			c-2.383,0-4.764-0.681-6.465-1.871l1.871-3.4c0.852,0.68,2.041,1.529,3.401,1.529c1.191,0,2.552-0.681,2.552-2.211
			c0-1.701-2.041-2.892-3.571-4.422c-2.212-1.871-3.231-3.062-3.231-5.613c0-3.4,3.231-5.611,7.144-5.611
			c2.723,0,4.594,1.021,5.272,1.359L392.034,492.209z"/>
		<path fill="#FFFFFF" d="M408.022,492.209c-0.851-0.511-1.871-0.851-3.062-0.851c-1.191,0-1.871,0.68-1.871,1.359
			c0,1.19,1.7,2.041,3.741,4.082c2.723,2.551,3.231,4.082,3.231,6.123c0,1.871-1.53,6.123-7.653,6.123
			c-2.382,0-4.763-0.681-6.463-1.871l1.87-3.4c0.851,0.68,2.041,1.529,3.402,1.529c1.189,0,2.551-0.681,2.551-2.211
			c0-1.701-2.041-2.892-3.571-4.422c-2.211-1.871-3.23-3.062-3.23-5.613c0-3.4,3.23-5.611,7.143-5.611
			c2.722,0,4.593,1.021,5.272,1.359L408.022,492.209z"/>
	</g>
	<g>
		<path fill="#FFFFFF" d="M160.215,478.602h-2.891v-17.009h-0.171c-0.85,2.382-5.442,11.736-8.334,17.009h-1.19
			c-2.551-5.441-6.803-14.286-7.652-17.009h0.34v17.009h-2.551v-20.75h3.062c2.721,5.612,5.272,11.227,7.993,17.009
			c2.892-5.953,5.783-11.565,8.675-17.009h2.721L160.215,478.602L160.215,478.602z"/>
		<path fill="#FFFFFF" d="M171.271,477.071c-1.021,1.021-2.381,2.041-3.572,2.041c-2.551,0-4.081-1.871-4.081-4.593
			c0-2.552,2.211-4.252,5.103-5.271l3.571-1.19c-0.17-1.871-1.53-2.892-2.892-2.892c-1.701,0-2.893,0.681-3.741,1.701l-1.021-1.531
			c1.529-1.36,3.061-2.041,4.932-2.041c2.211,0,5.442,0.681,5.442,5.104v6.463c0,1.189,0.171,2.552,0.681,3.741h-2.892
			c-0.681-0.851-0.681-1.7-0.681-2.722L171.271,477.071z M169.57,470.608c-2.381,0.681-3.401,1.87-3.401,3.741
			c0,1.53,1.021,2.552,2.211,2.552c1.871,0,4.252-2.382,3.912-6.804L169.57,470.608z"/>
		<path fill="#FFFFFF" d="M185.557,466.016c-1.021-0.681-1.87-1.021-2.722-1.021c-1.021,0-2.211,0.51-2.211,1.7
			c0,1.189,1.36,1.871,3.062,3.062c1.87,1.531,3.062,2.723,3.062,4.764c0,2.551-2.552,4.252-5.103,4.252
			c-1.701,0-3.572-0.852-4.422-1.871l1.359-1.53c0.852,0.85,2.041,1.53,3.231,1.53c1.189,0,2.551-0.682,2.551-2.041
			c0-1.7-1.53-2.551-2.891-3.401c-1.701-1.189-3.231-2.211-3.231-4.252c0-2.381,2.381-3.912,4.762-3.912
			c1.531,0,2.893,0.681,3.571,1.36L185.557,466.016z"/>
		<path fill="#FFFFFF" d="M192.021,463.635h3.741v1.531h-3.741v8.334c0,2.041,0.51,3.401,2.041,3.401
			c1.021,0,1.529-0.341,2.041-0.511l0.68,1.53c-1.021,0.681-2.041,1.021-3.062,1.021c-2.892,0-4.252-1.701-4.252-4.764v-8.844
			h-2.041v-1.53h2.041v-3.571l2.722-0.852v4.252L192.021,463.635L192.021,463.635z"/>
		<path fill="#FFFFFF" d="M199.674,471.289c0,2.891,2.041,5.782,4.934,5.782c1.359,0,3.062-0.511,3.911-1.36l0.851,1.53
			c-1.53,1.189-3.23,1.701-4.762,1.701c-4.593,0-7.654-2.893-7.654-7.994c0-5.103,3.572-7.483,6.974-7.483
			c4.423,0,5.953,4.082,5.612,7.824H199.674L199.674,471.289z M206.988,469.588c0-2.381-1.021-4.422-3.231-4.422
			c-2.892,0-3.911,2.381-3.911,4.422H206.988z"/>
		<path fill="#FFFFFF" d="M214.641,465.506l1.021-1.189c0.681-0.682,1.701-1.021,2.211-1.021c0.682,0,1.701,0.511,2.552,1.531
			l-1.189,1.7c-0.681-0.341-1.361-0.682-2.041-0.682c-1.361,0-2.552,1.361-2.552,4.764v7.993h-2.722v-14.968h2.552
			C214.641,463.805,214.641,465.506,214.641,465.506z"/>
	</g>
	<path fill="#FFFFFF" d="M256.481,494.59l-22.28-10.205v-2.381l22.11-10.205v2.552l-18.369,8.505l18.369,8.504L256.481,494.59
		L256.481,494.59z"/>
	<path fill="#FFFFFF" d="M431.492,471.629l22.111,10.205v2.381l-22.111,10.205v-2.722l18.369-8.504l-18.369-8.675V471.629z"/>
	<path fill="#FFFFFF" d="M262.093,433.19h-16.156v-96.095h-0.34c-4.594,13.945-31.125,66.16-46.942,96.095h-6.463
		c-14.627-30.274-38.608-80.618-43.03-96.095h-0.341v96.095h-13.266V315.325h17.348c15.138,31.295,29.935,62.93,44.73,96.095
		c16.328-33.166,32.995-64.97,49.153-96.095h15.307V433.19L262.093,433.19z"/>
</g>
</svg>
